<?xml version="1.0" encoding="UTF-8" standalone="no"?>
<!DOCTYPE svg PUBLIC "-//W3C//DTD SVG 1.1//EN"
 "http://www.w3.org/Graphics/SVG/1.1/DTD/svg11.dtd">
<!-- Generated by graphviz version 2.43.0 (0)
 -->
<!-- Title: architecture Pages: 1 -->
<svg width="962pt" height="736pt"
 viewBox="0.00 0.00 962.00 736.00" xmlns="http://www.w3.org/2000/svg" xmlns:xlink="http://www.w3.org/1999/xlink">
<g id="graph0" class="graph" transform="scale(1 1) rotate(0) translate(4 732)">
<title>architecture</title>
<polygon fill="#f1f5f9" stroke="transparent" points="-4,4 -4,-732 958,-732 958,4 -4,4"/>
<g id="clust1" class="cluster">
<title>cluster_frontend</title>
<polygon fill="#f0f0f0" stroke="#f0f0f0" points="8,-559 8,-720 321.14,-720 321.14,-559 8,-559"/>
<text text-anchor="middle" x="164.57" y="-708" font-family="Arial" font-size="10.00" fill="#000000">Client Tier</text>
</g>
<g id="clust2" class="cluster">
<title>cluster_services</title>
<polygon fill="#f0f0f0" stroke="#f0f0f0" points="350,-438 350,-683 679,-683 679,-438 350,-438"/>
<text text-anchor="middle" x="514.5" y="-671" font-family="Arial" font-size="10.00" fill="#000000">Business Logic</text>
</g>
<g id="clust3" class="cluster">
<title>cluster_async</title>
<polygon fill="#f0f0f0" stroke="#f0f0f0" points="707,-8 707,-155 817,-155 817,-8 707,-8"/>
<text text-anchor="middle" x="762" y="-143" font-family="Arial" font-size="10.00" fill="#000000">Async Processing</text>
</g>
<!-- web -->
<g id="node1" class="node">
<title>web</title>
<path fill="#7c3aed" stroke="black" stroke-width="1.2" d="M105,-693C105,-693 28,-693 28,-693 22,-693 16,-687 16,-681 16,-681 16,-651 16,-651 16,-645 22,-639 28,-639 28,-639 105,-639 105,-639 111,-639 117,-645 117,-651 117,-651 117,-681 117,-681 117,-687 111,-693 105,-693"/>
<text text-anchor="middle" x="66.5" y="-663.2" font-family="Arial" font-size="11.00" fill="white">Website</text>
</g>
<!-- cdn -->
<g id="node3" class="node">
<title>cdn</title>
<ellipse fill="#1d4ed8" stroke="black" stroke-width="1.2" cx="276" cy="-656" rx="37.29" ry="37.29"/>
<text text-anchor="middle" x="276" y="-653.2" font-family="Arial" font-size="11.00" fill="white">CloudFront</text>
</g>
<!-- web&#45;&gt;cdn -->
<g id="edge_0" class="edge">
<title>web&#45;&gt;cdn</title>
<path fill="none" stroke="#3b82f6" stroke-width="2.5" d="M117.2,-663.6C150.96,-661.98 195.3,-659.84 228.38,-658.25"/>
<polygon fill="#3b82f6" stroke="#3b82f6" stroke-width="2.5" points="228.88,-661.73 238.7,-657.75 228.54,-654.73 228.88,-661.73"/>
<text text-anchor="middle" x="174" y="-665.8" font-family="Arial" font-size="14.00" fill="#1e293b">Static Assets</text>
</g>
<!-- elb -->
<g id="node11" class="node">
<title>elb</title>
<polygon fill="#059669" stroke="black" stroke-width="1.2" points="321,-515 298.5,-551 253.5,-551 231,-515 253.5,-479 298.5,-479 321,-515"/>
<text text-anchor="middle" x="276" y="-512.2" font-family="Arial" font-size="11.00" fill="white">ELB</text>
</g>
<!-- web&#45;&gt;elb -->
<g id="edge_1" class="edge">
<title>web&#45;&gt;elb</title>
<path fill="none" stroke="#3b82f6" stroke-width="2.5" d="M109.67,-638.92C139.15,-619.61 179.13,-592.62 213,-567 221.49,-560.58 230.39,-553.4 238.71,-546.48"/>
<polygon fill="#3b82f6" stroke="#3b82f6" stroke-width="2.5" points="241.07,-549.07 246.47,-539.95 236.56,-543.71 241.07,-549.07"/>
</g>
<!-- mobile -->
<g id="node2" class="node">
<title>mobile</title>
<path fill="#7c3aed" stroke="black" stroke-width="1.2" d="M105,-621C105,-621 28,-621 28,-621 22,-621 16,-615 16,-609 16,-609 16,-579 16,-579 16,-573 22,-567 28,-567 28,-567 105,-567 105,-567 111,-567 117,-573 117,-579 117,-579 117,-609 117,-609 117,-615 111,-621 105,-621"/>
<text text-anchor="middle" x="66.5" y="-591.2" font-family="Arial" font-size="11.00" fill="white">Mobile</text>
</g>
<!-- mobile&#45;&gt;elb -->
<g id="edge_2" class="edge">
<title>mobile&#45;&gt;elb</title>
<path fill="none" stroke="#3b82f6" stroke-width="2.5" d="M117.2,-575.08C151.47,-562.03 196.64,-544.83 229.88,-532.18"/>
<polygon fill="#3b82f6" stroke="#3b82f6" stroke-width="2.5" points="231.25,-535.4 239.35,-528.57 228.76,-528.86 231.25,-535.4"/>
</g>
<!-- product -->
<g id="node4" class="node">
<title>product</title>
<path fill="#dc2626" stroke="black" stroke-width="1.2" d="M441,-580C441,-580 370,-580 370,-580 364,-580 358,-574 358,-568 358,-568 358,-534 358,-534 358,-528 364,-522 370,-522 370,-522 441,-522 441,-522 447,-522 453,-528 453,-534 453,-534 453,-568 453,-568 453,-574 447,-580 441,-580"/>
<text text-anchor="middle" x="405.5" y="-548.2" font-family="Arial" font-size="11.00" fill="white">Product Catalog</text>
</g>
<!-- product_db -->
<g id="node12" class="node">
<title>product_db</title>
<path fill="#b91c1c" stroke="black" stroke-width="1.2" d="M671,-368.32C671,-372.28 649.93,-375.5 624,-375.5 598.07,-375.5 577,-372.28 577,-368.32 577,-368.32 577,-303.68 577,-303.68 577,-299.72 598.07,-296.5 624,-296.5 649.93,-296.5 671,-299.72 671,-303.68 671,-303.68 671,-368.32 671,-368.32"/>
<path fill="none" stroke="black" stroke-width="1.2" d="M671,-368.32C671,-364.36 649.93,-361.14 624,-361.14 598.07,-361.14 577,-364.36 577,-368.32"/>
<text text-anchor="middle" x="624" y="-333.2" font-family="Arial" font-size="11.00" fill="white">Product DB</text>
</g>
<!-- product&#45;&gt;product_db -->
<g id="edge_6" class="edge">
<title>product&#45;&gt;product_db</title>
<path fill="none" stroke="#f59e0b" stroke-dasharray="1,5" d="M446.75,-521.75C449.1,-518.99 451.22,-516.07 453,-513 477.41,-470.9 441.36,-443.59 471,-405 494.28,-374.69 533.9,-357.3 566.86,-347.56"/>
<polygon fill="#f59e0b" stroke="#f59e0b" points="567.21,-347.46 578.05,-349.11 572.03,-346.12 576.84,-344.78 576.84,-344.78 576.84,-344.78 572.03,-346.12 575.64,-340.44 567.21,-347.46 567.21,-347.46"/>
</g>
<!-- cache -->
<g id="node15" class="node">
<title>cache</title>
<polygon fill="lightgrey" stroke="black" points="661,-430 587,-430 587,-394 661,-394 661,-430"/>
<text text-anchor="middle" x="624" y="-409.2" font-family="Arial" font-size="11.00" fill="white">ElastiCache</text>
</g>
<!-- product&#45;&gt;cache -->
<g id="edge_7" class="edge">
<title>product&#45;&gt;cache</title>
<path fill="none" stroke="#6b7280" stroke-dasharray="5,2" d="M446.48,-521.59C448.89,-518.87 451.11,-516 453,-513 470.85,-484.75 446.68,-462.91 471,-440 498.97,-413.65 543.2,-408.02 576.75,-408.17"/>
<polygon fill="#6b7280" stroke="#6b7280" points="576.72,-411.67 586.8,-408.39 576.87,-404.67 576.72,-411.67"/>
</g>
<!-- search -->
<g id="node17" class="node">
<title>search</title>
<polygon fill="lightgrey" stroke="black" stroke-dasharray="5,2" points="678,-278.5 570,-278.5 570,-213.5 678,-213.5 678,-278.5"/>
<text text-anchor="middle" x="624" y="-243.2" font-family="Arial" font-size="11.00" fill="white">Elasticsearch</text>
</g>
<!-- product&#45;&gt;search -->
<g id="edge_8" class="edge">
<title>product&#45;&gt;search</title>
<path fill="none" stroke="#3b82f6" stroke-width="2.5" d="M446.97,-521.88C449.27,-519.09 451.32,-516.12 453,-513 490.84,-442.56 427.64,-401.18 471,-334 491.62,-302.05 528.21,-280.35 560.33,-266.49"/>
<polygon fill="#3b82f6" stroke="#3b82f6" stroke-width="2.5" points="561.79,-269.67 569.69,-262.61 559.11,-263.21 561.79,-269.67"/>
<text text-anchor="middle" x="511.5" y="-337.8" font-family="Arial" font-size="14.00" fill="#1e293b">Indexing</text>
</g>
<!-- cart -->
<g id="node5" class="node">
<title>cart</title>
<path fill="#dc2626" stroke="black" stroke-width="1.2" d="M440.5,-656C440.5,-656 370.5,-656 370.5,-656 364.5,-656 358.5,-650 358.5,-644 358.5,-644 358.5,-610 358.5,-610 358.5,-604 364.5,-598 370.5,-598 370.5,-598 440.5,-598 440.5,-598 446.5,-598 452.5,-604 452.5,-610 452.5,-610 452.5,-644 452.5,-644 452.5,-650 446.5,-656 440.5,-656"/>
<text text-anchor="middle" x="405.5" y="-624.2" font-family="Arial" font-size="11.00" fill="white">Shopping Cart</text>
</g>
<!-- inventory -->
<g id="node8" class="node">
<title>inventory</title>
<path fill="#dc2626" stroke="black" stroke-width="1.2" d="M659,-656C659,-656 589,-656 589,-656 583,-656 577,-650 577,-644 577,-644 577,-610 577,-610 577,-604 583,-598 589,-598 589,-598 659,-598 659,-598 665,-598 671,-604 671,-610 671,-610 671,-644 671,-644 671,-650 665,-656 659,-656"/>
<text text-anchor="middle" x="624" y="-624.2" font-family="Arial" font-size="11.00" fill="white">Inventory</text>
</g>
<!-- cart&#45;&gt;inventory -->
<g id="edge_10" class="edge">
<title>cart&#45;&gt;inventory</title>
<path fill="none" stroke="#10b981" d="M452.68,-627C486.02,-627 531.23,-627 566.7,-627"/>
<polygon fill="none" stroke="#10b981" points="576.89,-623 576.89,-631 568.89,-631 568.89,-623 576.89,-623"/>
<polyline fill="none" stroke="#10b981" points="568.89,-627 566.89,-627 "/>
</g>
<!-- cart&#45;&gt;cache -->
<g id="edge_9" class="edge">
<title>cart&#45;&gt;cache</title>
<path fill="none" stroke="#f59e0b" stroke-dasharray="1,5" d="M443.77,-597.91C446.99,-595 450.11,-592.01 453,-589 512.84,-526.8 501.75,-486.84 570,-434 572.44,-432.11 575.07,-430.35 577.8,-428.73"/>
<polygon fill="#f59e0b" stroke="#f59e0b" points="577.95,-428.65 588.89,-427.95 582.37,-426.31 586.79,-423.98 586.79,-423.98 586.79,-423.98 582.37,-426.31 584.68,-420 577.95,-428.65 577.95,-428.65"/>
</g>
<!-- order -->
<g id="node6" class="node">
<title>order</title>
<path fill="#dc2626" stroke="black" stroke-width="1.2" d="M440.5,-504C440.5,-504 370.5,-504 370.5,-504 364.5,-504 358.5,-498 358.5,-492 358.5,-492 358.5,-458 358.5,-458 358.5,-452 364.5,-446 370.5,-446 370.5,-446 440.5,-446 440.5,-446 446.5,-446 452.5,-452 452.5,-458 452.5,-458 452.5,-492 452.5,-492 452.5,-498 446.5,-504 440.5,-504"/>
<text text-anchor="middle" x="405.5" y="-472.2" font-family="Arial" font-size="11.00" fill="white">Order Svc</text>
</g>
<!-- payment -->
<g id="node7" class="node">
<title>payment</title>
<path fill="#dc2626" stroke="black" stroke-width="1.2" d="M659,-506C659,-506 589,-506 589,-506 583,-506 577,-500 577,-494 577,-494 577,-460 577,-460 577,-454 583,-448 589,-448 589,-448 659,-448 659,-448 665,-448 671,-454 671,-460 671,-460 671,-494 671,-494 671,-500 665,-506 659,-506"/>
<text text-anchor="middle" x="624" y="-474.2" font-family="Arial" font-size="11.00" fill="white">Payment</text>
</g>
<!-- order&#45;&gt;payment -->
<g id="edge_12" class="edge">
<title>order&#45;&gt;payment</title>
<path fill="none" stroke="#10b981" d="M452.68,-475.43C486.02,-475.73 531.23,-476.15 566.7,-476.48"/>
<polygon fill="none" stroke="#10b981" points="576.93,-472.57 576.85,-480.57 568.86,-480.5 568.93,-472.5 576.93,-472.57"/>
<polyline fill="none" stroke="#10b981" points="568.89,-476.5 566.89,-476.48 "/>
</g>
<!-- order_db -->
<g id="node13" class="node">
<title>order_db</title>
<path fill="#b91c1c" stroke="black" stroke-width="1.2" d="M671,-188.32C671,-192.28 649.93,-195.5 624,-195.5 598.07,-195.5 577,-192.28 577,-188.32 577,-188.32 577,-123.68 577,-123.68 577,-119.72 598.07,-116.5 624,-116.5 649.93,-116.5 671,-119.72 671,-123.68 671,-123.68 671,-188.32 671,-188.32"/>
<path fill="none" stroke="black" stroke-width="1.2" d="M671,-188.32C671,-184.36 649.93,-181.14 624,-181.14 598.07,-181.14 577,-184.36 577,-188.32"/>
<text text-anchor="middle" x="624" y="-153.2" font-family="Arial" font-size="11.00" fill="white">Order DB</text>
</g>
<!-- order&#45;&gt;order_db -->
<g id="edge_11" class="edge">
<title>order&#45;&gt;order_db</title>
<path fill="none" stroke="#f59e0b" stroke-dasharray="1,5" d="M409.6,-445.72C415.38,-402.76 431.07,-321.71 471,-266 495.98,-231.15 535.45,-203.06 567.91,-183.99"/>
<polygon fill="#f59e0b" stroke="#f59e0b" points="568.19,-183.83 579.11,-182.75 572.53,-181.34 576.87,-178.85 576.87,-178.85 576.87,-178.85 572.53,-181.34 574.63,-174.95 568.19,-183.83 568.19,-183.83"/>
</g>
<!-- queue -->
<g id="node16" class="node">
<title>queue</title>
<polygon fill="lightgrey" stroke="black" points="675,-98 573,-98 573,-62 675,-62 675,-98"/>
<text text-anchor="middle" x="624" y="-77.2" font-family="Arial" font-size="11.00" fill="white">SQS/EventBridge</text>
</g>
<!-- order&#45;&gt;queue -->
<g id="edge_13" class="edge">
<title>order&#45;&gt;queue</title>
<path fill="none" stroke="#3b82f6" stroke-width="2" d="M405.92,-445.94C406.17,-389.15 413.62,-261.56 471,-176 493.55,-142.38 532.26,-118.18 564.98,-102.49"/>
<polygon fill="#3b82f6" stroke="#3b82f6" stroke-width="2" points="566.86,-105.48 574.47,-98.1 563.92,-99.12 566.86,-105.48"/>
<text text-anchor="middle" x="511.5" y="-179.8" font-family="Arial" font-size="14.00" fill="#1e293b">Order Events</text>
</g>
<!-- payment&#45;&gt;queue -->
<g id="edge_14" class="edge">
<title>payment&#45;&gt;queue</title>
<path fill="none" stroke="#3b82f6" stroke-width="2" d="M576.72,-469.82C552.9,-463.56 526.05,-451.85 511.5,-430 472.94,-372.11 470.72,-173.34 511.5,-117 523.57,-100.33 543.39,-91.04 563.07,-85.91"/>
<polygon fill="#3b82f6" stroke="#3b82f6" stroke-width="2" points="564.02,-89.28 572.99,-83.64 562.46,-82.45 564.02,-89.28"/>
</g>
<!-- inventory_db -->
<g id="node14" class="node">
<title>inventory_db</title>
<path fill="#b91c1c" stroke="black" stroke-width="1.2" d="M809,-659.32C809,-663.28 787.93,-666.5 762,-666.5 736.07,-666.5 715,-663.28 715,-659.32 715,-659.32 715,-594.68 715,-594.68 715,-590.72 736.07,-587.5 762,-587.5 787.93,-587.5 809,-590.72 809,-594.68 809,-594.68 809,-659.32 809,-659.32"/>
<path fill="none" stroke="black" stroke-width="1.2" d="M809,-659.32C809,-655.36 787.93,-652.14 762,-652.14 736.07,-652.14 715,-655.36 715,-659.32"/>
<text text-anchor="middle" x="762" y="-624.2" font-family="Arial" font-size="11.00" fill="white">Inventory DB</text>
</g>
<!-- inventory&#45;&gt;inventory_db -->
<g id="edge_15" class="edge">
<title>inventory&#45;&gt;inventory_db</title>
<path fill="none" stroke="#f59e0b" stroke-dasharray="1,5" d="M671.04,-627C681.78,-627 693.34,-627 704.47,-627"/>
<polygon fill="#f59e0b" stroke="#f59e0b" points="704.54,-627 714.54,-631.5 709.54,-627 714.54,-627 714.54,-627 714.54,-627 709.54,-627 714.54,-622.5 704.54,-627 704.54,-627"/>
</g>
<!-- fulfillment -->
<g id="node9" class="node">
<title>fulfillment</title>
<path fill="#dc2626" stroke="black" stroke-width="1.2" d="M797,-128C797,-128 727,-128 727,-128 721,-128 715,-122 715,-116 715,-116 715,-82 715,-82 715,-76 721,-70 727,-70 727,-70 797,-70 797,-70 803,-70 809,-76 809,-82 809,-82 809,-116 809,-116 809,-122 803,-128 797,-128"/>
<text text-anchor="middle" x="762" y="-96.2" font-family="Arial" font-size="11.00" fill="white">Fulfillment</text>
</g>
<!-- warehouse_system -->
<g id="node18" class="node">
<title>warehouse_system</title>
<polygon fill="lightgrey" stroke="black" stroke-dasharray="5,2" points="954,-131.5 846,-131.5 846,-66.5 954,-66.5 954,-131.5"/>
<text text-anchor="middle" x="900" y="-96.2" font-family="Arial" font-size="11.00" fill="white">Warehouse API</text>
</g>
<!-- fulfillment&#45;&gt;warehouse_system -->
<g id="edge_18" class="edge">
<title>fulfillment&#45;&gt;warehouse_system</title>
<path fill="none" stroke="#3b82f6" stroke-width="2.5" d="M809.04,-99C817.67,-99 826.82,-99 835.85,-99"/>
<polygon fill="#3b82f6" stroke="#3b82f6" stroke-width="2.5" points="835.97,-102.5 845.97,-99 835.97,-95.5 835.97,-102.5"/>
</g>
<!-- notification -->
<g id="node10" class="node">
<title>notification</title>
<polygon fill="lightgrey" stroke="black" points="797,-52 727,-52 727,-16 797,-16 797,-52"/>
<text text-anchor="middle" x="762" y="-31.2" font-family="Arial" font-size="11.00" fill="white">Notification</text>
</g>
<!-- notification&#45;&gt;web -->
<g id="edge_19" class="edge">
<title>notification&#45;&gt;web</title>
<path fill="none" stroke="black" d="M726.91,-34C699.4,-34 659.71,-34 625,-34 275,-34 275,-34 275,-34 270.72,-34 119.42,-626.47 117,-630 116.73,-630.39 116.45,-630.79 116.17,-631.18"/>
<polygon fill="black" stroke="black" points="109.55,-638.93 112.62,-628.4 112.8,-635.13 116.04,-631.32 116.04,-631.32 116.04,-631.32 112.8,-635.13 119.47,-634.25 109.55,-638.93 109.55,-638.93"/>
<text text-anchor="middle" x="405.5" y="-37.8" font-family="Arial" font-size="14.00" fill="#1e293b">Email/SMS</text>
</g>
<!-- elb&#45;&gt;product -->
<g id="edge_3" class="edge">
<title>elb&#45;&gt;product</title>
<path fill="none" stroke="#10b981" d="M314.56,-525.61C325.02,-528.56 336.61,-531.83 347.9,-535.02"/>
<polygon fill="none" stroke="#10b981" points="358.79,-533.94 356.62,-541.64 348.92,-539.46 351.09,-531.76 358.79,-533.94"/>
<polyline fill="none" stroke="#10b981" points="350,-535.61 348.08,-535.07 "/>
</g>
<!-- elb&#45;&gt;cart -->
<g id="edge_4" class="edge">
<title>elb&#45;&gt;cart</title>
<path fill="none" stroke="#10b981" d="M305.54,-539.86C310.84,-544.76 316.25,-549.95 321.14,-555 334.93,-569.24 335.34,-575.67 350,-589 350.94,-589.85 351.89,-590.7 352.86,-591.54"/>
<polygon fill="none" stroke="#10b981" points="363.13,-594.81 358.04,-600.99 351.87,-595.9 356.95,-589.73 363.13,-594.81"/>
<polyline fill="none" stroke="#10b981" points="354.41,-592.81 352.86,-591.54 "/>
</g>
<!-- elb&#45;&gt;order -->
<g id="edge_5" class="edge">
<title>elb&#45;&gt;order</title>
<path fill="none" stroke="#10b981" d="M313.88,-503.43C324.68,-500.04 336.74,-496.26 348.45,-492.58"/>
<polygon fill="none" stroke="#10b981" points="356.97,-485.72 359.37,-493.35 351.74,-495.75 349.34,-488.11 356.97,-485.72"/>
<polyline fill="none" stroke="#10b981" points="350.54,-491.93 348.63,-492.53 "/>
</g>
<!-- queue&#45;&gt;fulfillment -->
<g id="edge_16" class="edge">
<title>queue&#45;&gt;fulfillment</title>
<path fill="none" stroke="#3b82f6" stroke-width="2" d="M675.25,-87.02C684.8,-88.35 694.85,-89.76 704.57,-91.12"/>
<polygon fill="#3b82f6" stroke="#3b82f6" stroke-width="2" points="704.17,-94.59 714.55,-92.51 705.14,-87.66 704.17,-94.59"/>
</g>
<!-- queue&#45;&gt;notification -->
<g id="edge_17" class="edge">
<title>queue&#45;&gt;notification</title>
<path fill="none" stroke="#3b82f6" stroke-width="2" d="M675.25,-63C688.88,-58.39 703.53,-53.44 716.8,-48.95"/>
<polygon fill="#3b82f6" stroke="#3b82f6" stroke-width="2" points="718.28,-52.14 726.63,-45.62 716.04,-45.51 718.28,-52.14"/>
</g>
</g>

    <style>
        @keyframes flowRight {
            0% { stroke-dashoffset: 20; }
            100% { stroke-dashoffset: 0; }
        }
        
        @keyframes flowLeft {
            0% { stroke-dashoffset: -20; }
            100% { stroke-dashoffset: 0; }
        }
        
        /* Default flow direction (left to right, arrow ->)
           Positive stroke-dashoffset moves pattern LEFT, so negative offset = RIGHT flow */
        svg g[id*="edge"] path {
            animation: flowRight 1.5s linear infinite;
            stroke-dasharray: 8,4;
            stroke-width: 2.5;
        }
        
        /* Cluster styling */
        svg g[id*="cluster"] polygon {
            fill: #f9f9f9 !important;
            stroke: #d0d0d0 !important;
            stroke-width: 1.5 !important;
        }
        
        svg g[id*="cluster"] text {
            fill: #555 !important;
            font-weight: 600 !important;
        }
        
        /* Pulse effect on components */
        svg g[id*="node"] ellipse,
        svg g[id*="node"] polygon,
        svg g[id*="node"] path {
            transition: filter 0.3s ease;
        }
        
        svg g[id*="node"]:hover ellipse,
        svg g[id*="node"]:hover polygon,
        svg g[id*="node"]:hover path {
            filter: drop-shadow(0 0 10px rgba(60,60,60,0.5));
        }
        
        /* Relationship labels stay readable */
        svg g[id*="edge"] text {
            background: white;
            font-weight: bold;
            fill: #333 !important;
        }
    </style>
    </svg>
