<?xml version="1.0" encoding="UTF-8" standalone="no"?>
<!DOCTYPE svg PUBLIC "-//W3C//DTD SVG 1.1//EN"
 "http://www.w3.org/Graphics/SVG/1.1/DTD/svg11.dtd">
<!-- Generated by graphviz version 2.43.0 (0)
 -->
<!-- Title: architecture Pages: 1 -->
<svg width="1073pt" height="554pt"
 viewBox="0.00 0.00 1073.00 553.50" xmlns="http://www.w3.org/2000/svg" xmlns:xlink="http://www.w3.org/1999/xlink">
<g id="graph0" class="graph" transform="scale(1 1) rotate(0) translate(4 549.5)">
<title>architecture</title>
<polygon fill="#f1f5f9" stroke="transparent" points="-4,4 -4,-549.5 1069,-549.5 1069,4 -4,4"/>
<!-- web -->
<g id="node1" class="node">
<title>web</title>
<path fill="#7c3aed" stroke="black" stroke-width="1.2" d="M89,-134C89,-134 12,-134 12,-134 6,-134 0,-128 0,-122 0,-122 0,-92 0,-92 0,-86 6,-80 12,-80 12,-80 89,-80 89,-80 95,-80 101,-86 101,-92 101,-92 101,-122 101,-122 101,-128 95,-134 89,-134"/>
<text text-anchor="middle" x="50.5" y="-104.2" font-family="Arial" font-size="11.00" fill="white">Website</text>
</g>
<!-- cdn -->
<g id="node3" class="node">
<title>cdn</title>
<ellipse fill="#1d4ed8" stroke="black" stroke-width="1.2" cx="260" cy="-107" rx="37.29" ry="37.29"/>
<text text-anchor="middle" x="260" y="-104.2" font-family="Arial" font-size="11.00" fill="white">CloudFront</text>
</g>
<!-- web&#45;&gt;cdn -->
<g id="edge_0" class="edge">
<title>web&#45;&gt;cdn</title>
<path fill="none" stroke="#3b82f6" stroke-width="2.5" d="M101.2,-107C134.96,-107 179.3,-107 212.38,-107"/>
<polygon fill="#3b82f6" stroke="#3b82f6" stroke-width="2.5" points="212.7,-110.5 222.7,-107 212.7,-103.5 212.7,-110.5"/>
<text text-anchor="middle" x="158" y="-110.8" font-family="Arial" font-size="14.00" fill="#1e293b">Static Assets</text>
</g>
<!-- elb -->
<g id="node4" class="node">
<title>elb</title>
<polygon fill="#059669" stroke="black" stroke-width="1.2" points="305,-240 282.5,-276 237.5,-276 215,-240 237.5,-204 282.5,-204 305,-240"/>
<text text-anchor="middle" x="260" y="-237.2" font-family="Arial" font-size="11.00" fill="white">ELB</text>
</g>
<!-- web&#45;&gt;elb -->
<g id="edge_1" class="edge">
<title>web&#45;&gt;elb</title>
<path fill="none" stroke="#3b82f6" stroke-width="2.5" d="M93.74,-134.07C130.23,-157.46 182.6,-191.03 218.55,-214.07"/>
<polygon fill="#3b82f6" stroke="#3b82f6" stroke-width="2.5" points="217.01,-217.24 227.32,-219.69 220.79,-211.35 217.01,-217.24"/>
</g>
<!-- mobile -->
<g id="node2" class="node">
<title>mobile</title>
<path fill="#7c3aed" stroke="black" stroke-width="1.2" d="M89,-267C89,-267 12,-267 12,-267 6,-267 0,-261 0,-255 0,-255 0,-225 0,-225 0,-219 6,-213 12,-213 12,-213 89,-213 89,-213 95,-213 101,-219 101,-225 101,-225 101,-255 101,-255 101,-261 95,-267 89,-267"/>
<text text-anchor="middle" x="50.5" y="-237.2" font-family="Arial" font-size="11.00" fill="white">Mobile</text>
</g>
<!-- mobile&#45;&gt;elb -->
<g id="edge_2" class="edge">
<title>mobile&#45;&gt;elb</title>
<path fill="none" stroke="#3b82f6" stroke-width="2.5" d="M101.2,-240C132.47,-240 172.82,-240 204.89,-240"/>
<polygon fill="#3b82f6" stroke="#3b82f6" stroke-width="2.5" points="204.99,-243.5 214.99,-240 204.99,-236.5 204.99,-243.5"/>
</g>
<!-- product -->
<g id="node5" class="node">
<title>product</title>
<path fill="#dc2626" stroke="black" stroke-width="1.2" d="M425,-420C425,-420 354,-420 354,-420 348,-420 342,-414 342,-408 342,-408 342,-374 342,-374 342,-368 348,-362 354,-362 354,-362 425,-362 425,-362 431,-362 437,-368 437,-374 437,-374 437,-408 437,-408 437,-414 431,-420 425,-420"/>
<text text-anchor="middle" x="389.5" y="-388.2" font-family="Arial" font-size="11.00" fill="white">Product Catalog</text>
</g>
<!-- elb&#45;&gt;product -->
<g id="edge_3" class="edge">
<title>elb&#45;&gt;product</title>
<path fill="none" stroke="#10b981" d="M286.5,-270.19C306.91,-294.37 335.63,-328.39 357.4,-354.17"/>
<polygon fill="none" stroke="#10b981" points="366.97,-359.3 360.86,-364.46 355.7,-358.35 361.81,-353.19 366.97,-359.3"/>
<polyline fill="none" stroke="#10b981" points="358.75,-355.77 357.46,-354.24 "/>
</g>
<!-- cart -->
<g id="node6" class="node">
<title>cart</title>
<path fill="#dc2626" stroke="black" stroke-width="1.2" d="M424.5,-311C424.5,-311 354.5,-311 354.5,-311 348.5,-311 342.5,-305 342.5,-299 342.5,-299 342.5,-265 342.5,-265 342.5,-259 348.5,-253 354.5,-253 354.5,-253 424.5,-253 424.5,-253 430.5,-253 436.5,-259 436.5,-265 436.5,-265 436.5,-299 436.5,-299 436.5,-305 430.5,-311 424.5,-311"/>
<text text-anchor="middle" x="389.5" y="-279.2" font-family="Arial" font-size="11.00" fill="white">Shopping Cart</text>
</g>
<!-- elb&#45;&gt;cart -->
<g id="edge_4" class="edge">
<title>elb&#45;&gt;cart</title>
<path fill="none" stroke="#10b981" d="M297.54,-252.04C308.46,-255.63 320.69,-259.66 332.56,-263.57"/>
<polygon fill="none" stroke="#10b981" points="343.66,-263.02 341.16,-270.62 333.56,-268.11 336.06,-260.51 343.66,-263.02"/>
<polyline fill="none" stroke="#10b981" points="334.81,-264.31 332.91,-263.69 "/>
</g>
<!-- order -->
<g id="node7" class="node">
<title>order</title>
<path fill="#dc2626" stroke="black" stroke-width="1.2" d="M424.5,-204C424.5,-204 354.5,-204 354.5,-204 348.5,-204 342.5,-198 342.5,-192 342.5,-192 342.5,-158 342.5,-158 342.5,-152 348.5,-146 354.5,-146 354.5,-146 424.5,-146 424.5,-146 430.5,-146 436.5,-152 436.5,-158 436.5,-158 436.5,-192 436.5,-192 436.5,-198 430.5,-204 424.5,-204"/>
<text text-anchor="middle" x="389.5" y="-172.2" font-family="Arial" font-size="11.00" fill="white">Order Svc</text>
</g>
<!-- elb&#45;&gt;order -->
<g id="edge_5" class="edge">
<title>elb&#45;&gt;order</title>
<path fill="none" stroke="#10b981" d="M294.5,-222.92C306.37,-216.87 320.06,-209.89 333.26,-203.16"/>
<polygon fill="none" stroke="#10b981" points="340.47,-195 344.1,-202.12 336.97,-205.76 333.34,-198.63 340.47,-195"/>
<polyline fill="none" stroke="#10b981" points="335.16,-202.19 333.37,-203.1 "/>
</g>
<!-- product_db -->
<g id="node12" class="node">
<title>product_db</title>
<path fill="#b91c1c" stroke="black" stroke-width="1.2" d="M643,-455.32C643,-459.28 621.93,-462.5 596,-462.5 570.07,-462.5 549,-459.28 549,-455.32 549,-455.32 549,-390.68 549,-390.68 549,-386.72 570.07,-383.5 596,-383.5 621.93,-383.5 643,-386.72 643,-390.68 643,-390.68 643,-455.32 643,-455.32"/>
<path fill="none" stroke="black" stroke-width="1.2" d="M643,-455.32C643,-451.36 621.93,-448.14 596,-448.14 570.07,-448.14 549,-451.36 549,-455.32"/>
<text text-anchor="middle" x="596" y="-420.2" font-family="Arial" font-size="11.00" fill="white">Product DB</text>
</g>
<!-- product&#45;&gt;product_db -->
<g id="edge_6" class="edge">
<title>product&#45;&gt;product_db</title>
<path fill="none" stroke="#f59e0b" stroke-dasharray="1,5" d="M437.16,-398.3C467.37,-403.03 506.88,-409.21 538.81,-414.21"/>
<polygon fill="#f59e0b" stroke="#f59e0b" points="539.01,-414.24 548.2,-420.23 543.95,-415.01 548.89,-415.79 548.89,-415.79 548.89,-415.79 543.95,-415.01 549.59,-411.34 539.01,-414.24 539.01,-414.24"/>
</g>
<!-- cache -->
<g id="node15" class="node">
<title>cache</title>
<polygon fill="lightgrey" stroke="black" points="633,-365 559,-365 559,-329 633,-329 633,-365"/>
<text text-anchor="middle" x="596" y="-344.2" font-family="Arial" font-size="11.00" fill="white">ElastiCache</text>
</g>
<!-- product&#45;&gt;cache -->
<g id="edge_7" class="edge">
<title>product&#45;&gt;cache</title>
<path fill="none" stroke="#6b7280" stroke-dasharray="5,2" d="M437.16,-380.96C470.6,-373.77 515.43,-364.12 548.77,-356.95"/>
<polygon fill="#6b7280" stroke="#6b7280" points="549.68,-360.33 558.72,-354.81 548.21,-353.49 549.68,-360.33"/>
</g>
<!-- search -->
<g id="node17" class="node">
<title>search</title>
<polygon fill="lightgrey" stroke="black" stroke-dasharray="5,2" points="650,-545.5 542,-545.5 542,-480.5 650,-480.5 650,-545.5"/>
<text text-anchor="middle" x="596" y="-510.2" font-family="Arial" font-size="11.00" fill="white">Elasticsearch</text>
</g>
<!-- product&#45;&gt;search -->
<g id="edge_8" class="edge">
<title>product&#45;&gt;search</title>
<path fill="none" stroke="#3b82f6" stroke-width="2.5" d="M437.16,-418.84C465.49,-435.73 501.99,-457.51 532.75,-475.86"/>
<polygon fill="#3b82f6" stroke="#3b82f6" stroke-width="2.5" points="531.3,-479.07 541.68,-481.19 534.89,-473.06 531.3,-479.07"/>
<text text-anchor="middle" x="489.5" y="-473.8" font-family="Arial" font-size="14.00" fill="#1e293b">Indexing</text>
</g>
<!-- inventory -->
<g id="node10" class="node">
<title>inventory</title>
<path fill="#dc2626" stroke="black" stroke-width="1.2" d="M631,-311C631,-311 561,-311 561,-311 555,-311 549,-305 549,-299 549,-299 549,-265 549,-265 549,-259 555,-253 561,-253 561,-253 631,-253 631,-253 637,-253 643,-259 643,-265 643,-265 643,-299 643,-299 643,-305 637,-311 631,-311"/>
<text text-anchor="middle" x="596" y="-279.2" font-family="Arial" font-size="11.00" fill="white">Inventory</text>
</g>
<!-- cart&#45;&gt;inventory -->
<g id="edge_10" class="edge">
<title>cart&#45;&gt;inventory</title>
<path fill="none" stroke="#10b981" d="M436.65,-282C466.84,-282 506.48,-282 538.54,-282"/>
<polygon fill="none" stroke="#10b981" points="548.67,-278 548.67,-286 540.67,-286 540.67,-278 548.67,-278"/>
<polyline fill="none" stroke="#10b981" points="540.67,-282 538.67,-282 "/>
</g>
<!-- cart&#45;&gt;cache -->
<g id="edge_9" class="edge">
<title>cart&#45;&gt;cache</title>
<path fill="none" stroke="#f59e0b" stroke-dasharray="1,5" d="M436.65,-296.67C470.32,-307.37 515.74,-321.81 549.3,-332.47"/>
<polygon fill="#f59e0b" stroke="#f59e0b" points="549.34,-332.49 557.5,-339.8 554.1,-334 558.87,-335.52 558.87,-335.52 558.87,-335.52 554.1,-334 560.23,-331.23 549.34,-332.49 549.34,-332.49"/>
</g>
<!-- payment -->
<g id="node8" class="node">
<title>payment</title>
<path fill="#dc2626" stroke="black" stroke-width="1.2" d="M631,-235C631,-235 561,-235 561,-235 555,-235 549,-229 549,-223 549,-223 549,-189 549,-189 549,-183 555,-177 561,-177 561,-177 631,-177 631,-177 637,-177 643,-183 643,-189 643,-189 643,-223 643,-223 643,-229 637,-235 631,-235"/>
<text text-anchor="middle" x="596" y="-203.2" font-family="Arial" font-size="11.00" fill="white">Payment</text>
</g>
<!-- order&#45;&gt;payment -->
<g id="edge_12" class="edge">
<title>order&#45;&gt;payment</title>
<path fill="none" stroke="#10b981" d="M436.65,-182C466.84,-186.57 506.48,-192.58 538.54,-197.44"/>
<polygon fill="none" stroke="#10b981" points="549.27,-195.02 548.07,-202.93 540.16,-201.73 541.36,-193.82 549.27,-195.02"/>
<polyline fill="none" stroke="#10b981" points="540.76,-197.78 538.78,-197.48 "/>
</g>
<!-- order_db -->
<g id="node13" class="node">
<title>order_db</title>
<path fill="#b91c1c" stroke="black" stroke-width="1.2" d="M643,-100.32C643,-104.28 621.93,-107.5 596,-107.5 570.07,-107.5 549,-104.28 549,-100.32 549,-100.32 549,-35.68 549,-35.68 549,-31.72 570.07,-28.5 596,-28.5 621.93,-28.5 643,-31.72 643,-35.68 643,-35.68 643,-100.32 643,-100.32"/>
<path fill="none" stroke="black" stroke-width="1.2" d="M643,-100.32C643,-96.36 621.93,-93.14 596,-93.14 570.07,-93.14 549,-96.36 549,-100.32"/>
<text text-anchor="middle" x="596" y="-65.2" font-family="Arial" font-size="11.00" fill="white">Order DB</text>
</g>
<!-- order&#45;&gt;order_db -->
<g id="edge_11" class="edge">
<title>order&#45;&gt;order_db</title>
<path fill="none" stroke="#f59e0b" stroke-dasharray="1,5" d="M429.64,-145.92C437.83,-140.34 446.55,-134.76 455,-130 481.92,-114.84 513.25,-100.66 539.44,-89.7"/>
<polygon fill="#f59e0b" stroke="#f59e0b" points="539.6,-89.64 550.56,-89.97 544.22,-87.73 548.84,-85.82 548.84,-85.82 548.84,-85.82 544.22,-87.73 547.12,-81.66 539.6,-89.64 539.6,-89.64"/>
</g>
<!-- queue -->
<g id="node16" class="node">
<title>queue</title>
<polygon fill="lightgrey" stroke="black" points="789,-162 687,-162 687,-126 789,-126 789,-162"/>
<text text-anchor="middle" x="738" y="-141.2" font-family="Arial" font-size="11.00" fill="white">SQS/EventBridge</text>
</g>
<!-- order&#45;&gt;queue -->
<g id="edge_13" class="edge">
<title>order&#45;&gt;queue</title>
<path fill="none" stroke="#3b82f6" stroke-width="2" d="M436.77,-167.08C466.7,-162.25 506.55,-156.38 542,-153 587.06,-148.7 638.18,-146.44 676.77,-145.26"/>
<polygon fill="#3b82f6" stroke="#3b82f6" stroke-width="2" points="676.91,-148.75 686.81,-144.96 676.71,-141.76 676.91,-148.75"/>
<text text-anchor="middle" x="596" y="-156.8" font-family="Arial" font-size="14.00" fill="#1e293b">Order Events</text>
</g>
<!-- payment&#45;&gt;queue -->
<g id="edge_14" class="edge">
<title>payment&#45;&gt;queue</title>
<path fill="none" stroke="#3b82f6" stroke-width="2" d="M643.23,-185.53C657.21,-179.34 672.63,-172.51 686.85,-166.21"/>
<polygon fill="#3b82f6" stroke="#3b82f6" stroke-width="2" points="688.28,-169.41 696,-162.16 685.44,-163.01 688.28,-169.41"/>
</g>
<!-- fulfillment -->
<g id="node9" class="node">
<title>fulfillment</title>
<path fill="#dc2626" stroke="black" stroke-width="1.2" d="M908,-173C908,-173 838,-173 838,-173 832,-173 826,-167 826,-161 826,-161 826,-127 826,-127 826,-121 832,-115 838,-115 838,-115 908,-115 908,-115 914,-115 920,-121 920,-127 920,-127 920,-161 920,-161 920,-167 914,-173 908,-173"/>
<text text-anchor="middle" x="873" y="-141.2" font-family="Arial" font-size="11.00" fill="white">Fulfillment</text>
</g>
<!-- warehouse_system -->
<g id="node18" class="node">
<title>warehouse_system</title>
<polygon fill="lightgrey" stroke="black" stroke-dasharray="5,2" points="1065,-176.5 957,-176.5 957,-111.5 1065,-111.5 1065,-176.5"/>
<text text-anchor="middle" x="1011" y="-141.2" font-family="Arial" font-size="11.00" fill="white">Warehouse API</text>
</g>
<!-- fulfillment&#45;&gt;warehouse_system -->
<g id="edge_18" class="edge">
<title>fulfillment&#45;&gt;warehouse_system</title>
<path fill="none" stroke="#3b82f6" stroke-width="2.5" d="M920.04,-144C928.67,-144 937.82,-144 946.85,-144"/>
<polygon fill="#3b82f6" stroke="#3b82f6" stroke-width="2.5" points="946.97,-147.5 956.97,-144 946.97,-140.5 946.97,-147.5"/>
</g>
<!-- inventory_db -->
<g id="node14" class="node">
<title>inventory_db</title>
<path fill="#b91c1c" stroke="black" stroke-width="1.2" d="M785,-314.32C785,-318.28 763.93,-321.5 738,-321.5 712.07,-321.5 691,-318.28 691,-314.32 691,-314.32 691,-249.68 691,-249.68 691,-245.72 712.07,-242.5 738,-242.5 763.93,-242.5 785,-245.72 785,-249.68 785,-249.68 785,-314.32 785,-314.32"/>
<path fill="none" stroke="black" stroke-width="1.2" d="M785,-314.32C785,-310.36 763.93,-307.14 738,-307.14 712.07,-307.14 691,-310.36 691,-314.32"/>
<text text-anchor="middle" x="738" y="-279.2" font-family="Arial" font-size="11.00" fill="white">Inventory DB</text>
</g>
<!-- inventory&#45;&gt;inventory_db -->
<g id="edge_15" class="edge">
<title>inventory&#45;&gt;inventory_db</title>
<path fill="none" stroke="#f59e0b" stroke-dasharray="1,5" d="M643.23,-282C655.18,-282 668.17,-282 680.58,-282"/>
<polygon fill="#f59e0b" stroke="#f59e0b" points="680.82,-282 690.82,-286.5 685.82,-282 690.82,-282 690.82,-282 690.82,-282 685.82,-282 690.82,-277.5 680.82,-282 680.82,-282"/>
</g>
<!-- notification -->
<g id="node11" class="node">
<title>notification</title>
<polygon fill="lightgrey" stroke="black" points="908,-58 838,-58 838,-22 908,-22 908,-58"/>
<text text-anchor="middle" x="873" y="-37.2" font-family="Arial" font-size="11.00" fill="white">Notification</text>
</g>
<!-- notification&#45;&gt;web -->
<g id="edge_19" class="edge">
<title>notification&#45;&gt;web</title>
<path fill="none" stroke="black" d="M837.84,-23.73C811.46,-12.66 773.72,0 739,0 259,0 259,0 259,0 193.91,0 128.84,-42.1 89.37,-73.48"/>
<polygon fill="black" stroke="black" points="81.34,-80 86.27,-70.2 85.22,-76.85 89.11,-73.7 89.11,-73.7 89.11,-73.7 85.22,-76.85 91.94,-77.19 81.34,-80 81.34,-80"/>
<text text-anchor="middle" x="489.5" y="-3.8" font-family="Arial" font-size="14.00" fill="#1e293b">Email/SMS</text>
</g>
<!-- queue&#45;&gt;fulfillment -->
<g id="edge_16" class="edge">
<title>queue&#45;&gt;fulfillment</title>
<path fill="none" stroke="#3b82f6" stroke-width="2" d="M789.28,-144C797.85,-144 806.79,-144 815.51,-144"/>
<polygon fill="#3b82f6" stroke="#3b82f6" stroke-width="2" points="815.59,-147.5 825.59,-144 815.59,-140.5 815.59,-147.5"/>
</g>
<!-- queue&#45;&gt;notification -->
<g id="edge_17" class="edge">
<title>queue&#45;&gt;notification</title>
<path fill="none" stroke="#3b82f6" stroke-width="2" d="M762.17,-125.88C783.87,-108.91 816.48,-83.41 840.53,-64.61"/>
<polygon fill="#3b82f6" stroke="#3b82f6" stroke-width="2" points="842.93,-67.17 848.65,-58.26 838.62,-61.66 842.93,-67.17"/>
</g>
</g>

    <style>
        @keyframes flowRight {
            0% { stroke-dashoffset: 20; }
            100% { stroke-dashoffset: 0; }
        }
        
        @keyframes flowLeft {
            0% { stroke-dashoffset: -20; }
            100% { stroke-dashoffset: 0; }
        }
        
        /* Default flow direction (left to right, arrow ->)
           Positive stroke-dashoffset moves pattern LEFT, so negative offset = RIGHT flow */
        svg g[id*="edge"] path {
            animation: flowRight 1.5s linear infinite;
            stroke-dasharray: 8,4;
            stroke-width: 2.5;
        }
        
        /* Pulse effect on nodes */
        svg g[id*="node"] ellipse,
        svg g[id*="node"] polygon,
        svg g[id*="node"] path {
            transition: filter 0.3s ease;
        }
        
        svg g[id*="node"]:hover ellipse,
        svg g[id*="node"]:hover polygon,
        svg g[id*="node"]:hover path {
            filter: drop-shadow(0 0 10px rgba(60,60,60,0.5));
        }
        
        /* Edge labels stay readable */
        svg g[id*="edge"] text {
            background: white;
            font-weight: bold;
        }
    </style>
    </svg>
